<?xml version="1.0" encoding="UTF-8"?>
<svg width="61px" height="250px" viewBox="0 0 61 250" version="1.1" xmlns="http://www.w3.org/2000/svg" xmlns:xlink="http://www.w3.org/1999/xlink">
    <!-- Generator: sketchtool 52.1 (67048) - http://www.bohemiancoding.com/sketch -->
    <title>F385F579-7734-4F1E-AB5E-A0C65BAFAD1F</title>
    <desc>Created with sketchtool.</desc>
    <g id="Page-1" stroke="none" stroke-width="1" fill="none" fill-rule="evenodd">
        <g id="B2B-prijava" transform="translate(-576.000000, -229.000000)" fill="#8E8E8E">
            <g id="Sve-za-struju-2" transform="translate(576.000000, 229.000000)">
                <path d="M-73.1132812,96.3925781 C-77.8398674,96.3925781 -82.2148236,97.1542893 -86.2382812,98.6777344 C-87.4296935,99.1464867 -88.3720668,99.7275356 -89.0654297,100.420898 C-89.7587925,101.114261 -90.1054688,101.832028 -90.1054688,102.574219 C-90.1054688,103.667974 -89.2753989,104.927727 -87.6152344,106.353516 C-86.3261654,107.466802 -85.4179714,108.184569 -84.890625,108.506836 C-84.3632786,108.829103 -83.1816498,109.429683 -81.3457031,110.308594 C-81.2871091,110.328125 -80.9843777,110.503905 -80.4375,110.835938 C-79.3632759,111.460941 -78.6552751,111.851562 -78.3134766,112.007812 C-77.971678,112.164063 -76.5507938,112.691402 -74.0507812,113.589844 C-72.859369,114.136721 -71.9902371,114.537108 -71.4433594,114.791016 C-70.9941384,115.00586 -69.6855577,115.562496 -67.5175781,116.460938 C-61.1894215,119.097669 -56.5800926,121.871079 -53.6894531,124.78125 C-52.7324171,125.718755 -51.9804715,126.73437 -51.4335938,127.828125 C-50.886716,128.92188 -50.6132812,129.92773 -50.6132812,130.845703 C-50.6132812,131.822271 -51.1064404,132.852534 -52.0927734,133.936523 C-53.0791065,135.020513 -54.2656181,135.855466 -55.6523438,136.441406 C-59.5195506,138.062508 -63.9140379,138.873047 -68.8359375,138.873047 C-71.0820425,138.873047 -73.1913964,138.755861 -75.1640625,138.521484 C-80.2031502,137.955075 -83.5038984,136.919929 -85.0664062,135.416016 C-85.3203138,135.181639 -85.583983,134.957032 -85.8574219,134.742188 C-86.6191444,134.175778 -87.2734348,133.345709 -87.8203125,132.251953 C-88.6015664,130.669914 -88.9921875,129.39063 -88.9921875,128.414062 C-88.9921875,128.023436 -88.8945322,127.540042 -88.6992188,126.963867 C-88.5039053,126.387692 -88.2988292,125.992189 -88.0839844,125.777344 C-87.7324201,125.386717 -87.1269574,125.191406 -86.2675781,125.191406 C-85.0371032,125.191406 -84.421875,125.474607 -84.421875,126.041016 C-84.421875,126.216798 -84.5390613,126.607419 -84.7734375,127.212891 C-85.0078137,127.876956 -85.125,128.462888 -85.125,128.970703 C-85.125,131.080089 -84.0312609,132.798821 -81.84375,134.126953 C-79.1288927,135.748055 -75.1738541,136.558594 -69.9785156,136.558594 C-65.1347414,136.558594 -61.3701306,135.98731 -58.6845703,134.844727 C-55.99901,133.702143 -54.65625,132.095713 -54.65625,130.025391 C-54.65625,128.912104 -55.02734,127.818365 -55.7695312,126.744141 C-57.3906331,124.41991 -59.7783045,122.398446 -62.9326172,120.679688 C-66.0869298,118.960929 -72.2538604,116.324237 -81.4335938,112.769531 C-86.2578366,110.894522 -89.4902262,109.224617 -91.1308594,107.759766 C-93.0644628,106.041007 -94.03125,104.507819 -94.03125,103.160156 C-94.03125,102.378902 -93.6552772,101.490239 -92.9033203,100.494141 C-92.1513634,99.4980419 -91.2480521,98.6972687 -90.1933594,98.0917969 C-89.8222638,97.8769521 -89.1582079,97.5546896 -88.2011719,97.125 C-88.0058584,97.0273433 -87.7031271,96.8808604 -87.2929688,96.6855469 C-86.1015565,96.1191378 -83.9384922,95.5917993 -80.8037109,95.1035156 C-77.6689296,94.6152319 -74.8418095,94.3710938 -72.3222656,94.3710938 C-67.2050525,94.3710938 -62.4394752,95.1816325 -58.0253906,96.8027344 C-56.3261634,97.4277375 -54.9345757,98.2480418 -53.8505859,99.2636719 C-52.7665961,100.279302 -52.2246094,101.275386 -52.2246094,102.251953 C-52.2246094,102.896488 -52.4296854,103.462888 -52.8398438,103.951172 C-53.2500021,104.439456 -53.7187474,104.683594 -54.2460938,104.683594 C-54.6953147,104.683594 -55.1298807,104.488283 -55.5498047,104.097656 C-55.9697287,103.707029 -56.1796875,103.306643 -56.1796875,102.896484 L-56.1503906,101.929688 C-56.1503906,101.753905 -56.4970668,101.37305 -57.1904297,100.787109 C-57.8837925,100.201169 -58.5527312,99.7226581 -59.1972656,99.3515625 C-60.7402421,98.4531205 -62.766589,97.740237 -65.2763672,97.2128906 C-67.7861454,96.6855442 -70.3984239,96.4121095 -73.1132812,96.3925781 Z M-39.421875,100.083984 C-39.363281,99.9667963 -39.2851567,99.9082031 -39.1875,99.9082031 C-39.1679687,99.9082031 -38.8750028,99.9374997 -38.3085938,99.9960938 L-37.9277344,100.054688 C-37.8691403,100.054688 -37.6933608,100.035156 -37.4003906,99.9960938 L-37.2246094,99.9960938 C-36.2285106,99.9960938 -35.4863306,100.591791 -34.9980469,101.783203 C-33.9824168,104.20509 -33.4746094,106.802721 -33.4746094,109.576172 C-33.4746094,113.970725 -33.8603477,118.453102 -34.6318359,123.023438 C-35.4033242,127.593773 -36.335932,130.894521 -37.4296875,132.925781 C-38.9531326,135.796889 -40.7304586,137.232422 -42.7617188,137.232422 C-43.5429727,137.232422 -44.1874975,137.012698 -44.6953125,136.573242 C-45.2031275,136.133787 -45.6914039,135.367193 -46.1601562,134.273438 C-46.9804729,132.320303 -47.390625,130.298839 -47.390625,128.208984 L-47.3613281,123.638672 C-47.3613281,123.46289 -47.4394523,122.857427 -47.5957031,121.822266 C-47.9667987,119.166002 -48.1523438,117.085945 -48.1523438,115.582031 C-48.1523438,114.488276 -48.0351574,113.697268 -47.8007812,113.208984 C-47.5664051,112.56445 -47.3417979,112.242188 -47.1269531,112.242188 C-47.1074218,112.242188 -47.000001,112.291015 -46.8046875,112.388672 C-46.6874994,112.427735 -46.4335957,112.457031 -46.0429688,112.476562 C-45.7109358,112.515625 -45.4082045,112.720701 -45.1347656,113.091797 C-44.8613268,113.462892 -44.7246094,113.873045 -44.7246094,114.322266 C-44.7246094,114.517579 -44.7441404,114.742186 -44.7832031,114.996094 C-44.8808599,115.621097 -44.9296875,115.953125 -44.9296875,115.992188 C-44.8320308,117.593758 -44.7832031,118.541014 -44.7832031,118.833984 C-44.7832031,119.166017 -44.7929687,119.585935 -44.8125,120.09375 C-44.9492194,124.390646 -45.0175781,126.880856 -45.0175781,127.564453 C-45.0175781,129.048836 -44.7978538,130.367182 -44.3583984,131.519531 C-43.9189431,132.671881 -43.4160185,133.248047 -42.8496094,133.248047 C-41.423821,133.248047 -40.0761782,131.939466 -38.8066406,129.322266 C-37.8691359,127.369131 -37.1318386,124.795914 -36.5947266,121.602539 C-36.0576145,118.409164 -35.7890625,115.035174 -35.7890625,111.480469 C-35.7890625,109.17577 -36.0039041,107.237313 -36.4335938,105.665039 C-36.8632834,104.092766 -37.4003874,103.306641 -38.0449219,103.306641 C-38.6503937,103.306641 -39.2167942,103.707027 -39.7441406,104.507812 L-40.59375,105.767578 C-40.3984365,106.392581 -40.3007812,106.74414 -40.3007812,106.822266 C-40.3007812,106.978516 -40.388671,107.476558 -40.5644531,108.316406 C-40.6621099,108.785159 -40.7890617,109.097655 -40.9453125,109.253906 C-41.1015633,109.410157 -41.355467,109.488281 -41.7070312,109.488281 C-42.8203181,109.488281 -43.3769531,108.667977 -43.3769531,107.027344 C-43.3769531,104.93749 -42.9179733,103.423833 -42,102.486328 C-40.4179608,100.826164 -39.6171876,99.9960938 -39.5976562,99.9960938 L-39.421875,100.083984 Z M-16.0136719,123.228516 C-15.8378897,123.228516 -15.7255862,123.355467 -15.6767578,123.609375 C-15.6279294,123.863283 -15.6523433,124.156248 -15.75,124.488281 L-15.9550781,125.162109 C-16.4238305,127.623059 -16.8535137,129.405268 -17.2441406,130.508789 C-17.6347676,131.61231 -18.2109337,132.662104 -18.9726562,133.658203 C-20.925791,136.197278 -23.3378763,137.466797 -26.2089844,137.466797 C-28.376964,137.466797 -30.0566347,136.617196 -31.2480469,134.917969 C-32.4199277,133.238273 -33.0058594,131.275402 -33.0058594,129.029297 C-33.0058594,124.771463 -32.0097756,120.650411 -30.0175781,116.666016 C-29.1191361,114.8496 -28.1181696,113.379888 -27.0146484,112.256836 C-25.9111273,111.133783 -24.9101607,110.572266 -24.0117187,110.572266 C-23.8749993,110.572266 -23.4453161,110.674804 -22.7226562,110.879883 C-21.9999964,111.084962 -21.5410166,111.236328 -21.3457031,111.333984 C-20.4667925,111.744143 -20.0273437,112.847647 -20.0273437,114.644531 C-20.0273437,116.636729 -20.3984338,118.731434 -21.140625,120.928711 C-21.8828162,123.125988 -22.9081966,125.1621 -24.2167969,127.037109 C-25.0761762,128.248053 -25.7255837,129.087888 -26.1650391,129.556641 C-26.6044944,130.025393 -27.2441364,130.542966 -28.0839844,131.109375 C-28.5527367,131.421877 -28.7871094,131.685546 -28.7871094,131.900391 C-28.7871094,132.33008 -28.4062538,132.740232 -27.6445312,133.130859 C-26.8828087,133.521486 -26.0820354,133.716797 -25.2421875,133.716797 C-23.3476468,133.716797 -21.6191484,132.798837 -20.0566406,130.962891 C-19.626951,130.474607 -19.0410193,129.463875 -18.2988281,127.930664 C-17.5566369,126.397453 -17.0195329,125.103521 -16.6875,124.048828 C-16.4921865,123.50195 -16.2675794,123.228516 -16.0136719,123.228516 Z M-24.0996094,113.970703 C-24.8418006,113.970703 -25.7988223,114.703118 -26.9707031,116.167969 C-27.6738316,117.046879 -28.2988254,118.218743 -28.8457031,119.683594 C-28.9824226,120.074221 -29.138671,120.474607 -29.3144531,120.884766 C-29.6855487,121.802739 -29.9150386,122.569333 -30.0029297,123.18457 C-30.0908208,123.799808 -30.1445312,125.103506 -30.1640625,127.095703 L-30.1933594,127.59375 C-30.1933594,128.02344 -30.056642,128.238281 -29.7832031,128.238281 C-29.5878896,128.238281 -28.9921925,127.823246 -27.9960938,126.993164 C-26.999995,126.163082 -26.3261736,125.52344 -25.9746094,125.074219 C-24.9394479,123.746087 -24.1093781,122.315437 -23.484375,120.782227 C-22.8593719,119.249016 -22.546875,117.847663 -22.546875,116.578125 C-22.546875,114.878898 -23.0644479,114.009766 -24.0996094,113.970703 Z M16.828125,112.623047 C17.1992206,112.623047 17.5068347,112.73535 17.7509766,112.959961 C17.9951184,113.184571 18.1171875,113.462889 18.1171875,113.794922 C18.1171875,114.20508 17.9316425,114.571287 17.5605469,114.893555 C17.1894513,115.215822 16.4863333,115.611326 15.4511719,116.080078 C14.669918,116.431642 13.4443443,117.295892 11.7744141,118.672852 C10.1044838,120.049812 8.23438535,121.734365 6.1640625,123.726562 C5.10936973,124.761724 3.75196143,126.324208 2.09179688,128.414062 C1.17382354,129.585943 0.246098437,130.757807 -0.69140625,131.929688 C-1.39453477,132.750004 -1.74609375,133.169922 -1.74609375,133.189453 C-1.74609375,133.28711 -1.63867295,133.335938 -1.42382812,133.335938 C-1.34570273,133.335938 -1.25781299,133.326172 -1.16015625,133.306641 C-0.808591992,133.228515 -0.496095117,133.189453 -0.22265625,133.189453 C0.69531709,133.189453 2.58982939,133.58984 5.4609375,134.390625 C7.16016475,134.859377 8.45897988,135.09375 9.35742188,135.09375 C10.2168012,135.09375 11.3593679,134.820315 12.7851562,134.273438 C13.0976578,134.136718 13.693355,133.697269 14.5722656,132.955078 C15.0019553,132.603514 15.4999972,132.427734 16.0664062,132.427734 C16.3203138,132.427734 16.5400381,132.540038 16.7255859,132.764648 C16.9111337,132.989259 17.0039062,133.248045 17.0039062,133.541016 C17.0039062,133.873049 16.9208993,134.146483 16.7548828,134.361328 C16.5888664,134.576173 16.1933625,134.908201 15.5683594,135.357422 C13.8691321,136.568365 12.6582067,137.339842 11.9355469,137.671875 C10.1972569,138.414066 8.80078652,138.785156 7.74609375,138.785156 C6.47655615,138.785156 3.75197402,138.189459 -0.427734375,136.998047 C-0.994143457,136.841796 -1.50195088,136.763672 -1.95117188,136.763672 C-2.65430039,136.763672 -3.48925298,136.880858 -4.45605469,137.115234 C-5.4228564,137.349611 -6.1210916,137.603514 -6.55078125,137.876953 C-7.17578438,138.248049 -7.60546758,138.433594 -7.83984375,138.433594 C-8.05468857,138.433594 -8.27441294,138.301759 -8.49902344,138.038086 C-8.72363394,137.774413 -8.8359375,137.505861 -8.8359375,137.232422 C-8.8359375,136.783201 -8.38672324,136.138676 -7.48828125,135.298828 C-6.14061826,134.087885 -4.3339957,132.06642 -2.06835938,129.234375 C0.119151562,126.499986 1.67187041,124.629888 2.58984375,123.624023 C3.50781709,122.618159 4.67968037,121.490241 6.10546875,120.240234 C7.29688096,119.185542 8.00976445,118.541017 8.24414062,118.306641 C8.96680049,117.603512 9.41601475,117.203125 9.59179688,117.105469 C9.72851631,117.027343 9.796875,116.958985 9.796875,116.900391 C9.796875,116.822265 9.35742627,116.695313 8.47851562,116.519531 C6.31053604,115.933591 4.93359668,115.582032 4.34765625,115.464844 C3.76171582,115.347656 3.06836338,115.289062 2.26757812,115.289062 C1.09569727,115.289062 0.119144531,115.445311 -0.662109375,115.757812 C-0.837891504,115.835938 -1.27734023,116.138669 -1.98046875,116.666016 C-2.68359727,117.232425 -3.2304668,117.515625 -3.62109375,117.515625 C-3.95312666,117.515625 -4.25585801,117.403321 -4.52929688,117.178711 C-4.80273574,116.9541 -4.93945312,116.695314 -4.93945312,116.402344 C-4.93945312,116.031248 -4.6464873,115.572268 -4.06054688,115.025391 C-3.47460645,114.478513 -2.72266084,113.951174 -1.8046875,113.443359 C0.187509961,112.369135 2.12108438,111.832031 3.99609375,111.832031 C5.34375674,111.832031 7.01366191,112.115232 9.00585938,112.681641 C10.724618,113.169924 12.1210884,113.414062 13.1953125,113.414062 C14.0937545,113.414062 14.7871069,113.326173 15.2753906,113.150391 C16.1738326,112.798826 16.6914056,112.623047 16.828125,112.623047 Z M34.4648438,107.759766 L34.5820312,107.759766 C34.6601566,107.759766 34.7871085,107.867186 34.9628906,108.082031 C35.1191414,108.257813 35.4414038,108.521483 35.9296875,108.873047 C37.082037,109.673832 38.0097621,110.767571 38.7128906,112.154297 C39.3183624,113.345709 39.6210938,114.224607 39.6210938,114.791016 C39.6210938,115.318362 39.4892591,115.752928 39.2255859,116.094727 C38.9619127,116.436525 38.5371123,116.734374 37.9511719,116.988281 C37.7558584,117.066407 37.6386721,117.168945 37.5996094,117.295898 C37.5605467,117.422852 37.5312501,117.818356 37.5117188,118.482422 L37.3652344,119.15625 L37.453125,120.708984 C37.453125,120.962892 37.2480489,121.7539 36.8378906,123.082031 C36.5644518,123.941411 36.4277344,124.878901 36.4277344,125.894531 C36.4277344,127.1836 36.6035139,128.453119 36.9550781,129.703125 C37.1894543,130.50391 37.545896,131.172849 38.0244141,131.709961 C38.5029321,132.247073 38.9863257,132.515625 39.4746094,132.515625 C40.2753946,132.515625 41.1201127,132.134769 42.0087891,131.373047 C42.8974654,130.611324 43.5566385,129.712896 43.9863281,128.677734 C44.2402356,128.091794 44.4062496,127.730469 44.484375,127.59375 C44.6406258,127.359374 44.71875,127.232422 44.71875,127.212891 L44.484375,126.421875 L44.5429688,125.894531 L44.484375,124.957031 C44.484375,124.64453 44.650389,124.292971 44.9824219,123.902344 C45.3144548,123.511717 45.6171861,123.316406 45.890625,123.316406 C46.0859385,123.316406 46.3300767,123.404296 46.6230469,123.580078 C46.9160171,123.75586 47.1015621,123.93164 47.1796875,124.107422 C47.2773442,124.302735 47.3261719,124.761715 47.3261719,125.484375 C47.3261719,126.109378 46.9941439,127.3496 46.3300781,129.205078 C45.646481,131.138682 44.6406316,132.818352 43.3125,134.244141 C41.8085862,135.865242 40.3730537,136.675781 39.0058594,136.675781 C38.1464801,136.675781 37.3945345,136.382815 36.75,135.796875 C36.2031223,135.308591 35.836915,134.922853 35.6513672,134.639648 C35.4658194,134.356444 35.0996121,133.599616 34.5527344,132.369141 L33.9960938,131.197266 L33.6445312,131.841797 C33.2343729,132.720708 32.6533241,133.692377 31.9013672,134.756836 C31.1494103,135.821294 30.6074235,136.412109 30.2753906,136.529297 C30.0410145,136.646485 29.8359384,136.822264 29.6601562,137.056641 C29.5624995,137.212891 29.0595749,137.432616 28.1513672,137.71582 C27.2431595,137.999025 26.5839864,138.140625 26.1738281,138.140625 C25.490231,138.140625 24.7431681,137.945314 23.9326172,137.554688 C23.1220663,137.164061 22.4140655,136.656253 21.8085938,136.03125 C21.652343,135.855468 21.4570324,135.699219 21.2226562,135.5625 C20.5390591,135.152342 19.7578169,133.501968 18.8789062,130.611328 C18.3124972,128.775381 18.0292969,126.792979 18.0292969,124.664062 C18.0292969,122.300769 18.356442,119.976574 19.0107422,117.691406 C19.6650423,115.406239 20.539057,113.501961 21.6328125,111.978516 C24.191419,108.482404 27.5019328,106.734375 31.5644531,106.734375 C32.3066443,106.734375 32.9023415,106.929686 33.3515625,107.320312 C33.3710938,107.339844 33.4394525,107.36914 33.5566406,107.408203 C33.6738287,107.447266 33.8203116,107.505859 33.9960938,107.583984 L34.4648438,107.759766 Z M30.3046875,110.513672 C29.3867142,110.513672 28.3662166,110.81152 27.2431641,111.407227 C26.1201116,112.002933 25.099614,112.789058 24.1816406,113.765625 C23.1464792,114.85938 22.3945336,116.089837 21.9257812,117.457031 C21.2031214,119.566417 20.8417969,121.343743 20.8417969,122.789062 C20.8417969,124.019537 21.0078108,125.425773 21.3398438,127.007812 C21.6718767,128.589852 22.0624978,129.849605 22.5117188,130.787109 C23.0390651,131.900396 23.6933555,132.798825 24.4746094,133.482422 C25.2558633,134.166019 26.0273399,134.507812 26.7890625,134.507812 C28.6640719,134.507812 30.4023357,132.925797 32.0039062,129.761719 C32.7460975,128.316399 33.2197255,127.251957 33.4248047,126.568359 C33.6298838,125.884762 33.7519529,124.996099 33.7910156,123.902344 C33.9472664,118.62888 34.3574186,115.445318 35.0214844,114.351562 C35.1582038,114.039061 35.2265625,113.804688 35.2265625,113.648438 C35.2070312,113.257811 34.7382858,112.701175 33.8203125,111.978516 C32.5703063,111.001948 31.398443,110.513672 30.3046875,110.513672 Z M71.5253906,114.732422 C68.9472527,114.732422 66.193374,115.328119 63.2636719,116.519531 C62.1699164,116.968752 61.2128947,117.535153 60.3925781,118.21875 C59.5722615,118.902347 59.1621094,119.478513 59.1621094,119.947266 C59.1621094,120.572269 59.5136684,121.089842 60.2167969,121.5 C60.8808627,121.890627 61.5742151,122.173827 62.296875,122.349609 C63.0195349,122.525392 65.226544,122.955075 68.9179688,123.638672 C71.3789186,124.107424 73.1513618,124.703121 74.2353516,125.425781 C75.3193414,126.148441 75.8613281,127.105463 75.8613281,128.296875 C75.8613281,129.39063 75.3828173,130.503901 74.4257812,131.636719 C73.1953063,133.10157 71.1543111,134.419916 68.3027344,135.591797 C65.5488144,136.705084 63.0879015,137.261719 60.9199219,137.261719 C59.7285097,137.261719 58.7324259,136.949222 57.9316406,136.324219 C57.3652315,135.874998 57.0283208,135.586915 56.9208984,135.459961 C56.813476,135.333007 56.710938,135.103517 56.6132812,134.771484 C56.4374991,134.205075 56.3496094,133.697268 56.3496094,133.248047 C56.3496094,132.740232 56.6621062,132.276369 57.2871094,131.856445 C57.9121125,131.436521 58.5956994,131.226562 59.3378906,131.226562 C59.7285176,131.226562 60.1435525,131.402342 60.5830078,131.753906 C61.0224631,132.105471 61.232422,132.427733 61.2128906,132.720703 L61.1542969,133.921875 C61.1542969,134.13672 61.5058559,134.283203 62.2089844,134.361328 C62.4628919,134.380859 62.667968,134.400391 62.8242188,134.419922 C62.9804695,134.458985 63.0781248,134.478516 63.1171875,134.478516 C63.2343756,134.478516 63.4101551,134.449219 63.6445312,134.390625 C63.800782,134.351562 64.7675692,134.146486 66.5449219,133.775391 C67.8144595,133.501952 68.6640604,133.150393 69.09375,132.720703 C69.4453143,132.408202 69.8164043,132.154298 70.2070312,131.958984 C70.6953149,131.705077 71.1201154,131.30469 71.4814453,130.757812 C71.8427752,130.210935 72.0234375,129.673831 72.0234375,129.146484 C72.0234375,127.720696 70.3535323,126.783205 67.0136719,126.333984 C62.7558381,125.767575 60.0898491,125.279299 59.015625,124.869141 C56.5546752,123.970699 55.3242188,122.730477 55.3242188,121.148438 C55.3242188,120.269527 55.7636675,119.371098 56.6425781,118.453125 C58.3418054,116.617178 60.807601,115.083991 64.0400391,113.853516 C67.2724771,112.623041 70.4218597,112.007812 73.4882812,112.007812 C75.0703204,112.007812 76.1835905,112.349606 76.828125,113.033203 C77.3750027,113.619144 77.6484375,114.30273 77.6484375,115.083984 C77.6484375,116.04102 77.306644,116.734373 76.6230469,117.164062 C76.1347632,117.457033 75.70508,117.603516 75.3339844,117.603516 C74.9238261,117.603516 74.5429705,117.476564 74.1914062,117.222656 C73.839842,116.968749 73.6640625,116.695314 73.6640625,116.402344 C73.6640625,116.324218 73.673828,116.25586 73.6933594,116.197266 L73.8691406,115.376953 C73.7519525,114.947263 72.9707104,114.732422 71.5253906,114.732422 Z M82.8632812,101.402344 C83.2734396,101.402344 83.595702,101.587889 83.8300781,101.958984 C84.0644543,102.33008 84.1816406,102.847653 84.1816406,103.511719 C84.1816406,104.507817 84.132813,105.699212 84.0351562,107.085938 L83.9765625,107.90625 C83.6054669,110.621107 83.3808598,112.154295 83.3027344,112.505859 C83.1855463,112.759767 83.1269531,112.896484 83.1269531,112.916016 C83.1464845,113.150392 83.3271467,113.291992 83.6689453,113.34082 C84.0107439,113.389649 85.207021,113.443359 87.2578125,113.501953 C90.2265773,113.638673 91.8476549,113.785155 92.1210938,113.941406 C92.2773445,114.019532 92.4238274,114.190428 92.5605469,114.454102 C92.6972663,114.717775 92.765625,114.95703 92.765625,115.171875 C92.765625,115.660159 92.5214868,116.412104 92.0332031,117.427734 C91.798827,117.935549 91.4082059,118.189453 90.8613281,118.189453 C90.5683579,118.189453 89.9921918,118.121094 89.1328125,117.984375 C88.8593736,117.945312 87.8291105,117.872071 86.0419922,117.764648 C84.2548739,117.657226 83.1074244,117.603516 82.5996094,117.603516 C82.1699197,117.603516 81.8867194,117.867185 81.75,118.394531 C81.7304687,118.433594 81.681641,118.580077 81.6035156,118.833984 C81.3105454,119.810552 81.1640625,120.611325 81.1640625,121.236328 C81.1640625,121.255859 81.2421867,123.091779 81.3984375,126.744141 C81.4375002,127.60352 81.6230452,128.643549 81.9550781,129.864258 C82.287111,131.084967 82.6679666,132.105465 83.0976562,132.925781 C83.5273459,133.746098 84.0351533,134.15625 84.6210938,134.15625 C85.5195357,134.15625 86.4667919,133.301766 87.4628906,131.592773 C88.4589894,129.883781 89.4062455,127.476578 90.3046875,124.371094 C90.4804696,123.726559 90.6074215,123.296876 90.6855469,123.082031 C90.802735,122.749998 90.8613281,122.554688 90.8613281,122.496094 C90.9394535,121.792965 91.0371088,121.441406 91.1542969,121.441406 C91.388673,121.441406 91.5058594,121.636717 91.5058594,122.027344 L91.4765625,123.521484 C91.4765625,123.59961 91.5058591,123.814451 91.5644531,124.166016 C91.7011726,124.888675 91.7695312,125.484373 91.7695312,125.953125 C91.7695312,126.89063 91.505862,128.169914 90.9785156,129.791016 C90.4707006,131.333992 90.0507829,132.476559 89.71875,133.21875 C89.3867171,133.960941 89.0058615,134.566404 88.5761719,135.035156 C87.2480402,136.617195 86.5546878,137.4375 86.4960938,137.496094 C85.6953085,138.101566 84.982425,138.404297 84.3574219,138.404297 C82.5800692,138.404297 81.1445367,136.753923 80.0507812,133.453125 C79.1523393,130.796862 78.703125,127.574238 78.703125,123.785156 C78.703125,123.414061 78.7324216,122.037121 78.7910156,119.654297 L78.7910156,118.716797 C78.810547,118.404295 78.8203125,118.150392 78.8203125,117.955078 C78.8203125,117.681639 78.7128917,117.544922 78.4980469,117.544922 C78.3417961,117.544922 78.1562511,117.564453 77.9414062,117.603516 C77.8242182,117.603516 77.5117213,117.632812 77.0039062,117.691406 C76.1054643,117.789063 75.3339876,117.92578 74.6894531,118.101562 C74.2792948,118.199219 73.9375014,118.248047 73.6640625,118.248047 C73.019528,118.248047 72.6972656,117.818364 72.6972656,116.958984 C72.6972656,116.529295 72.7265622,116.25586 72.7851562,116.138672 C72.8437503,116.021484 73.0683574,115.816408 73.4589844,115.523438 L73.546875,115.230469 C73.7226571,114.683591 74.1132782,114.312501 74.71875,114.117188 C75.7148487,113.804686 76.5644496,113.648438 77.2675781,113.648438 C77.3066408,113.648438 77.4238271,113.677734 77.6191406,113.736328 L77.9414062,113.619141 C78.8398482,113.501953 79.3085936,113.423828 79.3476562,113.384766 C79.4843757,112.857419 79.5722654,112.515626 79.6113281,112.359375 L80.34375,108.433594 C81.242192,104.449199 81.7548822,102.281252 81.8818359,101.929688 C82.0087897,101.578123 82.3359349,101.402344 82.8632812,101.402344 Z M92.3554688,110.191406 L93.3515625,110.484375 C93.9375029,110.660157 94.2890619,110.796875 94.40625,110.894531 C94.8359396,111.246096 95.0507812,111.675779 95.0507812,112.183594 C95.0507812,112.300782 94.9140639,113.082024 94.640625,114.527344 C94.4257802,115.640631 94.347656,116.421873 94.40625,116.871094 L94.5820312,118.335938 L95.1972656,116.548828 C95.9199255,114.419911 96.3740225,113.135744 96.5595703,112.696289 C96.7451181,112.256834 97.0136701,111.822268 97.3652344,111.392578 C97.794924,110.826169 98.2832004,110.542969 98.8300781,110.542969 C99.1425797,110.542969 99.777339,110.826169 100.734375,111.392578 C101.496098,111.841799 102.003905,112.242186 102.257812,112.59375 C102.51172,112.945314 102.638672,113.423825 102.638672,114.029297 C102.638672,114.615237 102.443361,115.127927 102.052734,115.567383 C101.662107,116.006838 101.193362,116.226562 100.646484,116.226562 C100.43164,116.226562 100.16797,116.099611 99.8554688,115.845703 C99.249997,115.357419 98.8105482,115.113281 98.5371094,115.113281 C98.3613272,115.113281 98.1953133,115.308592 98.0390625,115.699219 C97.8828117,116.089846 97.4140664,117.466785 96.6328125,119.830078 C96.0859348,121.412117 95.6025412,123.453112 95.1826172,125.953125 C94.7626932,128.453138 94.5527344,130.494133 94.5527344,132.076172 C94.5527344,132.291017 94.582031,132.710934 94.640625,133.335938 L94.7285156,134.361328 L94.8164062,135.035156 C94.6992182,136.304694 94.6113284,136.998046 94.5527344,137.115234 C94.3574209,137.642581 93.9375032,137.90625 93.2929688,137.90625 C92.7851537,137.90625 92.4677741,137.598636 92.3408203,136.983398 C92.2138666,136.368161 92.1406251,134.791028 92.1210938,132.251953 C92.1210938,129.693347 92.0917972,128.00391 92.0332031,127.183594 C91.9746091,125.562492 91.9453125,124.507815 91.9453125,124.019531 C91.9453125,123.453122 91.9843746,122.789066 92.0625,122.027344 C92.0820313,121.773436 92.0917969,121.548829 92.0917969,121.353516 C92.0917969,121.001951 91.9355484,120.78711 91.6230469,120.708984 C91.2324199,120.591796 90.9882817,120.47461 90.890625,120.357422 C90.7929683,120.240234 90.714844,120.005861 90.65625,119.654297 C90.6367187,119.458983 90.6269531,118.4629 90.6269531,116.666016 C90.6269531,112.408182 91.2031192,110.25 92.3554688,110.191406 Z M125.724609,126.509766 C125.998048,126.529297 126.105469,126.949215 126.046875,127.769531 C126.027344,128.003907 126.017578,128.453122 126.017578,129.117188 C126.017578,129.468752 126.037109,129.810545 126.076172,130.142578 C126.115235,130.416017 126.134766,130.5625 126.134766,130.582031 C126.095703,131.089846 125.836916,131.80273 125.358398,132.720703 C124.87988,133.638676 124.318363,134.488277 123.673828,135.269531 C123.244138,135.816409 122.477545,136.353513 121.374023,136.880859 C120.270502,137.408206 119.376957,137.671875 118.693359,137.671875 C117.169914,137.671875 115.949223,137.056647 115.03125,135.826172 C114.230465,134.751948 113.693361,133.121105 113.419922,130.933594 C113.380859,130.582029 113.292969,129.273449 113.15625,127.007812 L113.068359,126.626953 C112.755858,127.193362 112.365237,128.199212 111.896484,129.644531 C110.998042,132.457045 110.138676,134.449213 109.318359,135.621094 C108.498043,136.792975 107.550787,137.378906 106.476562,137.378906 C105.988279,137.378906 105.568361,137.251954 105.216797,136.998047 C104.806639,136.705077 104.425783,136.045904 104.074219,135.020508 C103.722654,133.995112 103.546875,133.033208 103.546875,132.134766 L103.576172,125.982422 C103.537109,124.810541 103.517578,123.628912 103.517578,122.4375 C103.517578,115.230433 104.093744,111.626953 105.246094,111.626953 C105.578127,111.626953 105.963865,111.861326 106.40332,112.330078 C106.842776,112.79883 107.0625,113.218748 107.0625,113.589844 C107.0625,113.628906 106.837893,115.787088 106.388672,120.064453 C105.91992,124.22463 105.685547,126.880854 105.685547,128.033203 C105.685547,129.458992 105.807616,130.699213 106.051758,131.753906 C106.2959,132.808599 106.583983,133.335938 106.916016,133.335938 C107.326174,133.335938 108.024409,132.310557 109.010742,130.259766 C109.997075,128.208974 110.7832,126.167979 111.369141,124.136719 C112.755866,119.23435 113.507812,116.578127 113.625,116.167969 C113.761719,115.679685 113.86914,114.996098 113.947266,114.117188 C114.044922,113.27734 114.259764,112.559573 114.591797,111.963867 C114.92383,111.368161 115.285154,111.070312 115.675781,111.070312 C116.007814,111.070312 116.310546,111.241209 116.583984,111.583008 C116.857423,111.924806 116.994141,112.300779 116.994141,112.710938 C116.994141,112.984376 116.925782,113.335935 116.789062,113.765625 C116.437498,114.917975 116.154298,116.626942 115.939453,118.892578 C115.724608,121.158214 115.617188,123.531238 115.617188,126.011719 C115.617188,131.089869 116.847644,133.628906 119.308594,133.628906 C119.679689,133.628906 119.948241,133.589844 120.114258,133.511719 C120.280274,133.433593 120.62695,133.199221 121.154297,132.808594 L121.623047,132.486328 C122.326175,131.958982 122.848631,131.485354 123.19043,131.06543 C123.532228,130.645506 124.132808,129.703132 124.992188,128.238281 C125.226564,127.867186 125.373047,127.544923 125.431641,127.271484 C125.548829,126.763669 125.646484,126.509766 125.724609,126.509766 Z M127.042969,104.009766 C127.101563,104.009766 127.687494,104.17578 128.800781,104.507812 C129.015626,104.566407 129.201171,104.781248 129.357422,105.152344 C129.513673,105.523439 129.591797,105.923826 129.591797,106.353516 C129.591797,107.037113 129.376955,107.618162 128.947266,108.09668 C128.517576,108.575198 128.009769,108.814453 127.423828,108.814453 C127.033201,108.814453 126.613283,108.560549 126.164062,108.052734 C125.714842,107.544919 125.490234,107.076174 125.490234,106.646484 C125.490234,106.080075 125.661131,105.503909 126.00293,104.917969 C126.344728,104.332028 126.691404,104.029297 127.042969,104.009766 Z M127.951172,111.685547 C128.36133,111.685547 128.727537,111.856444 129.049805,112.198242 C129.372072,112.540041 129.533203,112.935545 129.533203,113.384766 C129.533203,113.638673 129.259768,115.093737 128.712891,117.75 C128.400389,119.644541 128.13672,123.833952 127.921875,130.318359 L127.423828,138.726562 L127.248047,143.736328 C127.228516,143.931642 127.21875,144.107421 127.21875,144.263672 C127.21875,144.458985 127.252929,144.581054 127.321289,144.629883 C127.389649,144.678711 127.609373,144.751953 127.980469,144.849609 C128.097657,144.869141 128.15625,145.005858 128.15625,145.259766 C128.15625,145.455079 128.126953,145.669921 128.068359,145.904297 C127.93164,146.626957 127.863281,147.369137 127.863281,148.130859 C127.863281,148.912113 127.902343,149.468748 127.980469,149.800781 C128.058594,150.132814 128.341794,150.904291 128.830078,152.115234 C128.908204,152.330079 128.947266,152.613279 128.947266,152.964844 C128.947266,153.453127 128.791017,153.931638 128.478516,154.400391 C128.166014,154.869143 127.843752,155.103516 127.511719,155.103516 C127.042966,155.103516 126.588869,154.605474 126.149414,153.609375 C125.709959,152.613276 125.373048,151.314461 125.138672,149.712891 C124.943358,148.40429 124.845703,146.441419 124.845703,143.824219 C124.845703,141.753896 124.953124,139.673839 125.167969,137.583984 C125.421876,134.947252 125.548828,133.150395 125.548828,132.193359 L125.490234,129.058594 C125.490234,128.667967 125.519531,128.296877 125.578125,127.945312 C125.753907,127.027339 125.841797,126.402345 125.841797,126.070312 C125.841797,125.796874 125.607424,125.582032 125.138672,125.425781 C124.376949,125.171874 123.996094,124.507818 123.996094,123.433594 C123.996094,123.082029 124.054687,122.686526 124.171875,122.24707 C124.289063,121.807615 124.679684,120.435558 125.34375,118.130859 L125.666016,116.138672 L126.193359,114.527344 C126.427736,113.414057 126.662108,112.662111 126.896484,112.271484 C127.130861,111.880857 127.48242,111.685547 127.951172,111.685547 Z M154.464844,126.509766 C154.738283,126.529297 154.845703,126.949215 154.787109,127.769531 C154.767578,128.003907 154.757812,128.453122 154.757812,129.117188 C154.757812,129.468752 154.777344,129.810545 154.816406,130.142578 C154.855469,130.416017 154.875,130.5625 154.875,130.582031 C154.835937,131.089846 154.577151,131.80273 154.098633,132.720703 C153.620115,133.638676 153.058597,134.488277 152.414062,135.269531 C151.984373,135.816409 151.217779,136.353513 150.114258,136.880859 C149.010737,137.408206 148.117191,137.671875 147.433594,137.671875 C145.910149,137.671875 144.689458,137.056647 143.771484,135.826172 C142.970699,134.751948 142.433595,133.121105 142.160156,130.933594 C142.121094,130.582029 142.033204,129.273449 141.896484,127.007812 L141.808594,126.626953 C141.496092,127.193362 141.105471,128.199212 140.636719,129.644531 C139.738277,132.457045 138.87891,134.449213 138.058594,135.621094 C137.238277,136.792975 136.291021,137.378906 135.216797,137.378906 C134.728513,137.378906 134.308596,137.251954 133.957031,136.998047 C133.546873,136.705077 133.166017,136.045904 132.814453,135.020508 C132.462889,133.995112 132.287109,133.033208 132.287109,132.134766 L132.316406,125.982422 C132.277344,124.810541 132.257812,123.628912 132.257812,122.4375 C132.257812,115.230433 132.833979,111.626953 133.986328,111.626953 C134.318361,111.626953 134.704099,111.861326 135.143555,112.330078 C135.58301,112.79883 135.802734,113.218748 135.802734,113.589844 C135.802734,113.628906 135.578127,115.787088 135.128906,120.064453 C134.660154,124.22463 134.425781,126.880854 134.425781,128.033203 C134.425781,129.458992 134.54785,130.699213 134.791992,131.753906 C135.036134,132.808599 135.324217,133.335938 135.65625,133.335938 C136.066408,133.335938 136.764644,132.310557 137.750977,130.259766 C138.73731,128.208974 139.523435,126.167979 140.109375,124.136719 C141.496101,119.23435 142.248046,116.578127 142.365234,116.167969 C142.501954,115.679685 142.609375,114.996098 142.6875,114.117188 C142.785157,113.27734 142.999998,112.559573 143.332031,111.963867 C143.664064,111.368161 144.025389,111.070312 144.416016,111.070312 C144.748049,111.070312 145.05078,111.241209 145.324219,111.583008 C145.597658,111.924806 145.734375,112.300779 145.734375,112.710938 C145.734375,112.984376 145.666016,113.335935 145.529297,113.765625 C145.177733,114.917975 144.894532,116.626942 144.679688,118.892578 C144.464843,121.158214 144.357422,123.531238 144.357422,126.011719 C144.357422,131.089869 145.587878,133.628906 148.048828,133.628906 C148.419924,133.628906 148.688476,133.589844 148.854492,133.511719 C149.020509,133.433593 149.367185,133.199221 149.894531,132.808594 L150.363281,132.486328 C151.06641,131.958982 151.588865,131.485354 151.930664,131.06543 C152.272463,130.645506 152.873043,129.703132 153.732422,128.238281 C153.966798,127.867186 154.113281,127.544923 154.171875,127.271484 C154.289063,126.763669 154.386718,126.509766 154.464844,126.509766 Z" id="Sve-za-struju" transform="translate(30.421875, 124.737305) rotate(-90.000000) translate(-30.421875, -124.737305) "></path>
            </g>
        </g>
    </g>
</svg>