<?xml version="1.0" encoding="UTF-8"?>
<svg width="117px" height="29px" viewBox="0 0 117 29" version="1.1" xmlns="http://www.w3.org/2000/svg" xmlns:xlink="http://www.w3.org/1999/xlink">
    <!-- Generator: sketchtool 52.1 (67048) - http://www.bohemiancoding.com/sketch -->
    <title>1773D596-B7D3-4F19-B2AC-34B6288BEB8D</title>
    <desc>Created with sketchtool.</desc>
    <g id="Page-1" stroke="none" stroke-width="1" fill="none" fill-rule="evenodd">
        <g id="Pocetna-B2B" transform="translate(-283.000000, -61.000000)" fill="#DA251D">
            <g id="Header-cotra" transform="translate(0.000000, -11.000000)">
                <g id="Header">
                    <g id="Group" transform="translate(283.000000, 72.000000)">
                        <path d="M9.98046875,1.28320312 C7.77472855,1.28320312 5.7330823,1.63866832 3.85546875,2.34960938 C3.29947639,2.56836047 2.85970214,2.83951661 2.53613281,3.16308594 C2.21256349,3.48665526 2.05078125,3.82161285 2.05078125,4.16796875 C2.05078125,4.67838797 2.43814717,5.26627271 3.21289062,5.93164062 C3.81445613,6.45117447 4.23828002,6.78613206 4.484375,6.93652344 C4.73046998,7.08691481 5.28189676,7.36718545 6.13867188,7.77734375 C6.16601576,7.78645838 6.30729039,7.86848881 6.5625,8.0234375 C7.06380459,8.31510563 7.39420493,8.49739547 7.55371094,8.5703125 C7.71321694,8.64322953 8.37629625,8.88932082 9.54296875,9.30859375 C10.0989611,9.56380336 10.504556,9.75065045 10.7597656,9.86914062 C10.9694021,9.96940154 11.5800731,10.2291646 12.5917969,10.6484375 C15.5449366,11.8789124 17.6959568,13.1731703 19.0449219,14.53125 C19.4915387,14.9687522 19.8424466,15.4427058 20.0976562,15.953125 C20.3528659,16.4635442 20.4804688,16.9329406 20.4804688,17.3613281 C20.4804688,17.8170596 20.2503278,18.297849 19.7900391,18.8037109 C19.3297503,19.3095728 18.7760449,19.6992174 18.1289062,19.9726562 C16.3242097,20.7291704 14.273449,21.1074219 11.9765625,21.1074219 C10.9283802,21.1074219 9.94401502,21.0527349 9.0234375,20.9433594 C6.67186324,20.6790351 5.13151406,20.1959671 4.40234375,19.4941406 C4.28385357,19.3847651 4.16080793,19.2799484 4.03320312,19.1796875 C3.6777326,18.9153633 3.37239711,18.5279973 3.1171875,18.0175781 C2.75260234,17.2792932 2.5703125,16.6822939 2.5703125,16.2265625 C2.5703125,16.0442699 2.61588496,15.8186862 2.70703125,15.5498047 C2.79817754,15.2809231 2.89387971,15.0963547 2.99414062,14.9960938 C3.15820395,14.8138012 3.4407532,14.7226562 3.84179688,14.7226562 C4.4160185,14.7226562 4.703125,14.8548164 4.703125,15.1191406 C4.703125,15.2011723 4.64843805,15.3834621 4.5390625,15.6660156 C4.42968695,15.975913 4.375,16.2493478 4.375,16.4863281 C4.375,17.470708 4.88541156,18.2727834 5.90625,18.8925781 C7.17318342,19.6490923 9.01886809,20.0273438 11.4433594,20.0273438 C13.7037873,20.0273438 15.4606057,19.7607449 16.7138672,19.2275391 C17.9671287,18.6943333 18.59375,17.9446663 18.59375,16.9785156 C18.59375,16.4589818 18.4205746,15.9485702 18.0742188,15.4472656 C17.3177046,14.3626248 16.2034579,13.4192748 14.7314453,12.6171875 C13.2594327,11.8151002 10.3815318,10.5846437 6.09765625,8.92578125 C3.84634291,8.05077687 2.33789445,7.27148779 1.57226563,6.58789062 C0.669917363,5.78580328 0.21875,5.07031564 0.21875,4.44140625 C0.21875,4.07682109 0.394203975,3.6621117 0.745117188,3.19726562 C1.0960304,2.73241955 1.51757566,2.35872537 2.00976562,2.07617188 C2.18294357,1.97591096 2.49283631,1.82552184 2.93945312,1.625 C3.03059941,1.57942686 3.17187404,1.51106816 3.36328125,1.41992188 C3.91927361,1.15559764 4.92870362,0.909506348 6.39160156,0.681640625 C7.8544995,0.453774902 9.17382225,0.33984375 10.3496094,0.33984375 C12.7376421,0.33984375 14.9615782,0.718095176 17.0214844,1.47460938 C17.8144571,1.7662775 18.4638647,2.14908617 18.9697266,2.62304688 C19.4755885,3.09700758 19.7285156,3.56184668 19.7285156,4.01757812 C19.7285156,4.31836088 19.6328135,4.58268115 19.4414062,4.81054688 C19.249999,5.0384126 19.0312512,5.15234375 18.7851562,5.15234375 C18.5755198,5.15234375 18.3727223,5.06119883 18.1767578,4.87890625 C17.9807933,4.69661367 17.8828125,4.50976658 17.8828125,4.31835938 L17.8964844,3.8671875 C17.8964844,3.78515584 17.7347021,3.60742324 17.4111328,3.33398437 C17.0875635,3.06054551 16.7753921,2.83724045 16.4746094,2.6640625 C15.7545537,2.24478957 14.8089251,1.91211061 13.6376953,1.66601562 C12.4664655,1.41992064 11.2474022,1.29231775 9.98046875,1.28320312 Z M25.703125,3.00585938 C25.7304689,2.9511716 25.7669269,2.92382812 25.8125,2.92382812 C25.8216146,2.92382812 25.958332,2.93749986 26.2226562,2.96484375 L26.4003906,2.9921875 C26.4277345,2.9921875 26.5097649,2.98307301 26.6464844,2.96484375 L26.7285156,2.96484375 C27.1933617,2.96484375 27.5397124,3.24283576 27.7675781,3.79882812 C28.2415388,4.92904211 28.4785156,6.14126957 28.4785156,7.43554688 C28.4785156,9.48633838 28.2985044,11.5781143 27.9384766,13.7109375 C27.5784487,15.8437607 27.1432317,17.3841098 26.6328125,18.3320312 C25.9218714,19.6718817 25.0924527,20.3417969 24.1445312,20.3417969 C23.7799461,20.3417969 23.4791679,20.2392588 23.2421875,20.0341797 C23.0052071,19.8291005 22.7773448,19.4713567 22.5585938,18.9609375 C22.1757793,18.0494746 21.984375,17.1061247 21.984375,16.1308594 L21.9980469,13.9980469 C21.9980469,13.9160152 21.9615889,13.633466 21.8886719,13.1503906 C21.7154939,11.9108011 21.6289062,10.9401077 21.6289062,10.2382812 C21.6289062,9.72786203 21.6835932,9.3587251 21.7929688,9.13085938 C21.9023443,8.83007662 22.007161,8.6796875 22.1074219,8.6796875 C22.1165365,8.6796875 22.1666662,8.70247373 22.2578125,8.74804688 C22.3125003,8.76627613 22.4309887,8.77994787 22.6132812,8.7890625 C22.7682299,8.80729176 22.9095046,8.90299393 23.0371094,9.07617188 C23.1647142,9.24934982 23.2285156,9.44075416 23.2285156,9.65039062 C23.2285156,9.74153691 23.2194011,9.84635357 23.2011719,9.96484375 C23.1555987,10.2565119 23.1328125,10.4114582 23.1328125,10.4296875 C23.1783856,11.1770871 23.2011719,11.6191399 23.2011719,11.7558594 C23.2011719,11.9108081 23.1966146,12.1067696 23.1875,12.34375 C23.1236976,14.3489684 23.0917969,15.5110661 23.0917969,15.8300781 C23.0917969,16.5227899 23.1943349,17.1380181 23.3994141,17.6757812 C23.6044932,18.2135444 23.8391914,18.4824219 24.1035156,18.4824219 C24.7688835,18.4824219 25.3977835,17.8717509 25.9902344,16.6503906 C26.4277366,15.7389277 26.7718086,14.5380934 27.0224609,13.0478516 C27.2731132,11.5576097 27.3984375,9.98308121 27.3984375,8.32421875 C27.3984375,7.24869254 27.2981781,6.34407919 27.0976562,5.61035156 C26.8971344,4.87662394 26.6464859,4.50976562 26.3457031,4.50976562 C26.0631496,4.50976562 25.7988294,4.69661271 25.5527344,5.0703125 L25.15625,5.65820312 C25.2473963,5.94987125 25.2929688,6.11393211 25.2929688,6.15039062 C25.2929688,6.22330766 25.2519535,6.45572721 25.1699219,6.84765625 C25.1243487,7.06640734 25.0651045,7.21223922 24.9921875,7.28515625 C24.9192705,7.35807328 24.8007821,7.39453125 24.6367188,7.39453125 C24.1171849,7.39453125 23.8574219,7.01172258 23.8574219,6.24609375 C23.8574219,5.27082846 24.0716124,4.56445531 24.5,4.12695312 C25.2382849,3.35220967 25.6119791,2.96484375 25.6210938,2.96484375 L25.703125,3.00585938 Z M36.6269531,13.8066406 C36.7089848,13.8066406 36.7613931,13.8658848 36.7841797,13.984375 C36.8069663,14.1028652 36.7955731,14.2395826 36.75,14.3945312 L36.6542969,14.7089844 C36.4355458,15.8574276 36.235027,16.689125 36.0527344,17.2041016 C35.8704418,17.7190781 35.6015643,18.2089821 35.2460938,18.6738281 C34.3346309,19.8587299 33.2089911,20.4511719 31.8691406,20.4511719 C30.8574168,20.4511719 30.0735705,20.0546915 29.5175781,19.2617188 C28.9707004,18.4778607 28.6972656,17.5618542 28.6972656,16.5136719 C28.6972656,14.5266828 29.1621047,12.6035249 30.0917969,10.7441406 C30.5110698,9.89648014 30.9781875,9.2106146 31.4931641,8.68652344 C32.0081406,8.16243228 32.4752583,7.90039062 32.8945312,7.90039062 C32.9583337,7.90039062 33.1588525,7.94824171 33.4960938,8.04394531 C33.833335,8.13964892 34.0475256,8.21028623 34.1386719,8.25585938 C34.5488302,8.44726658 34.7539062,8.96223539 34.7539062,9.80078125 C34.7539062,10.7304734 34.5807309,11.7080027 34.234375,12.7333984 C33.8880191,13.7587942 33.4095083,14.70898 32.7988281,15.5839844 C32.3977845,16.1490914 32.0947276,16.5410145 31.8896484,16.7597656 C31.6845693,16.9785167 31.3860697,17.2200508 30.9941406,17.484375 C30.7753895,17.6302091 30.6660156,17.7532547 30.6660156,17.8535156 C30.6660156,18.0540375 30.8437482,18.2454418 31.1992188,18.4277344 C31.5546893,18.610027 31.9283835,18.7011719 32.3203125,18.7011719 C33.2044315,18.7011719 34.0110641,18.2727907 34.7402344,17.4160156 C34.9407562,17.1881499 35.214191,16.7164749 35.5605469,16.0009766 C35.9069028,15.2854782 36.1575513,14.6816431 36.3125,14.1894531 C36.4036463,13.9342435 36.5084629,13.8066406 36.6269531,13.8066406 Z M32.8535156,9.48632812 C32.5071597,9.48632812 32.0605496,9.82812158 31.5136719,10.5117188 C31.1855452,10.9218771 30.8938815,11.4687466 30.6386719,12.1523438 C30.5748695,12.3346363 30.5019535,12.5214834 30.4199219,12.7128906 C30.2467439,13.1412782 30.1396486,13.499022 30.0986328,13.7861328 C30.057617,14.0732436 30.0325521,14.681636 30.0234375,15.6113281 L30.0097656,15.84375 C30.0097656,16.0442718 30.0735671,16.1445312 30.2011719,16.1445312 C30.2923182,16.1445312 30.5703102,15.9508483 31.0351562,15.5634766 C31.5000023,15.1761048 31.8144523,14.8776052 31.9785156,14.6679688 C32.461591,14.048174 32.8489569,13.3805374 33.140625,12.6650391 C33.4322931,11.9495407 33.578125,11.2955759 33.578125,10.703125 C33.578125,9.91015229 33.336591,9.50455738 32.8535156,9.48632812 Z M51.953125,8.85742188 C52.1263029,8.85742188 52.2698562,8.90983021 52.3837891,9.01464844 C52.4977219,9.11946667 52.5546875,9.24934818 52.5546875,9.40429688 C52.5546875,9.59570408 52.4680998,9.76660081 52.2949219,9.91699219 C52.1217439,10.0673836 51.7936222,10.251952 51.3105469,10.4707031 C50.9459617,10.6347664 50.3740273,11.0380827 49.5947266,11.6806641 C48.8154258,12.3232454 47.9427132,13.1093704 46.9765625,14.0390625 C46.4843725,14.5221378 45.8509153,15.2512972 45.0761719,16.2265625 C44.6477843,16.7734402 44.2148459,17.3203098 43.7773438,17.8671875 C43.4492171,18.2500019 43.2851562,18.4459635 43.2851562,18.4550781 C43.2851562,18.5006513 43.335286,18.5234375 43.4355469,18.5234375 C43.4720054,18.5234375 43.5130206,18.5188803 43.5585938,18.5097656 C43.7226571,18.4733071 43.8684889,18.4550781 43.9960938,18.4550781 C44.4244813,18.4550781 45.3085871,18.6419252 46.6484375,19.015625 C47.4414102,19.2343761 48.0475239,19.34375 48.4667969,19.34375 C48.8678405,19.34375 49.4010383,19.2161471 50.0664062,18.9609375 C50.2122403,18.8971351 50.4902323,18.692059 50.9003906,18.3457031 C51.1009125,18.1816398 51.333332,18.0996094 51.5976562,18.0996094 C51.7161464,18.0996094 51.8186845,18.1520177 51.9052734,18.2568359 C51.9918624,18.3616542 52.0351562,18.4824212 52.0351562,18.6191406 C52.0351562,18.7740893 51.9964197,18.9016922 51.9189453,19.0019531 C51.841471,19.102214 51.6569025,19.2571604 51.3652344,19.4667969 C50.5722617,20.0319039 50.0071631,20.3919263 49.6699219,20.546875 C48.8587199,20.8932309 48.2070337,21.0664062 47.7148438,21.0664062 C47.1223929,21.0664062 45.8509212,20.7884142 43.9003906,20.2324219 C43.6360664,20.1595048 43.3990896,20.1230469 43.1894531,20.1230469 C42.8613265,20.1230469 42.4716819,20.1777338 42.0205078,20.2871094 C41.5693337,20.3964849 41.2434906,20.5149733 41.0429688,20.6425781 C40.7513006,20.8157561 40.5507818,20.9023438 40.4414062,20.9023438 C40.3411453,20.9023438 40.2386073,20.8408209 40.1337891,20.7177734 C40.0289708,20.5947259 39.9765625,20.4694017 39.9765625,20.3417969 C39.9765625,20.1321604 40.1861958,19.8313822 40.6054688,19.4394531 C41.2343781,18.8743461 42.0774687,17.9309962 43.1347656,16.609375 C44.1556041,15.333327 44.8802062,14.4606143 45.3085938,13.9912109 C45.7369813,13.5218075 46.2838508,12.9954456 46.9492188,12.4121094 C47.5052111,11.9199194 47.8378901,11.6191412 47.9472656,11.5097656 C48.2845069,11.181639 48.4941402,10.9947919 48.5761719,10.9492188 C48.6399743,10.9127602 48.671875,10.8808595 48.671875,10.8535156 C48.671875,10.8170571 48.4667989,10.7578129 48.0566406,10.6757812 C47.0449168,10.4023424 46.4023451,10.2382815 46.1289062,10.1835938 C45.8554674,10.128906 45.5319029,10.1015625 45.1582031,10.1015625 C44.6113254,10.1015625 44.1556008,10.1744784 43.7910156,10.3203125 C43.708984,10.356771 43.5039079,10.4980456 43.1757812,10.7441406 C42.8476546,11.0084649 42.5924488,11.140625 42.4101562,11.140625 C42.2552076,11.140625 42.1139329,11.0882167 41.9863281,10.9833984 C41.8587233,10.8785802 41.7949219,10.7578132 41.7949219,10.6210938 C41.7949219,10.4479158 41.9316393,10.2337252 42.2050781,9.97851562 C42.478517,9.72330602 42.8294249,9.47721473 43.2578125,9.24023438 C44.1875046,8.73892979 45.0898394,8.48828125 45.9648438,8.48828125 C46.5937531,8.48828125 47.3730422,8.62044139 48.3027344,8.88476562 C49.1048217,9.11263135 49.7565079,9.2265625 50.2578125,9.2265625 C50.6770854,9.2265625 51.0006499,9.18554729 51.2285156,9.10351562 C51.6477886,8.9394523 51.8893226,8.85742188 51.953125,8.85742188 Z M60.1835938,6.58789062 L60.2382812,6.58789062 C60.2747398,6.58789062 60.333984,6.63802033 60.4160156,6.73828125 C60.4889327,6.82031291 60.6393218,6.94335855 60.8671875,7.10742188 C61.4049506,7.48112166 61.837889,7.99153322 62.1660156,8.63867188 C62.4485691,9.19466424 62.5898438,9.60481639 62.5898438,9.86914062 C62.5898438,10.1152356 62.5283209,10.3180331 62.4052734,10.4775391 C62.2822259,10.6370451 62.0839857,10.7760411 61.8105469,10.8945312 C61.7194006,10.9309898 61.6647136,10.9788408 61.6464844,11.0380859 C61.6282551,11.097331 61.6145834,11.2818995 61.6054688,11.5917969 L61.5371094,11.90625 L61.578125,12.6308594 C61.578125,12.7493496 61.4824228,13.1184865 61.2910156,13.7382812 C61.1634108,14.1393249 61.0996094,14.5768205 61.0996094,15.0507812 C61.0996094,15.6523468 61.1816398,16.2447887 61.3457031,16.828125 C61.4550787,17.2018248 61.6214182,17.5139961 61.8447266,17.7646484 C62.068035,18.0153007 62.2936187,18.140625 62.5214844,18.140625 C62.8951842,18.140625 63.2893859,17.9628924 63.7041016,17.6074219 C64.1188172,17.2519513 64.4264313,16.8326847 64.6269531,16.3496094 C64.7454433,16.0761705 64.8229165,15.9075524 64.859375,15.84375 C64.932292,15.7343745 64.96875,15.6751303 64.96875,15.6660156 L64.859375,15.296875 L64.8867188,15.0507812 L64.859375,14.6132812 C64.859375,14.4674472 64.9368482,14.3033863 65.0917969,14.1210938 C65.2467456,13.9388012 65.3880202,13.8476562 65.515625,13.8476562 C65.6067713,13.8476562 65.7207024,13.8886715 65.8574219,13.9707031 C65.9941413,14.0527348 66.080729,14.1347652 66.1171875,14.2167969 C66.1627606,14.3079432 66.1855469,14.5221337 66.1855469,14.859375 C66.1855469,15.1510431 66.0306005,15.7298134 65.7207031,16.5957031 C65.4016911,17.4980514 64.9322948,18.2818977 64.3125,18.9472656 C63.6106736,19.7037798 62.9407584,20.0820312 62.3027344,20.0820312 C61.9016907,20.0820312 61.5507828,19.9453139 61.25,19.671875 C60.9947904,19.4440093 60.8238937,19.2639981 60.7373047,19.1318359 C60.6507157,18.9996738 60.479819,18.6464872 60.2246094,18.0722656 L59.9648438,17.5253906 L59.8007812,17.8261719 C59.609374,18.2363302 59.3382179,18.6897762 58.9873047,19.1865234 C58.6363915,19.6832707 58.3834643,19.9589841 58.2285156,20.0136719 C58.1191401,20.0683596 58.0234379,20.1503901 57.9414062,20.2597656 C57.8958331,20.3326827 57.6611349,20.4352207 57.2373047,20.5673828 C56.8134744,20.6995449 56.5058603,20.765625 56.3144531,20.765625 C55.9954411,20.765625 55.6468118,20.6744801 55.2685547,20.4921875 C54.8902976,20.3098949 54.5598972,20.0729181 54.2773438,19.78125 C54.2044267,19.6992183 54.1132818,19.6263024 54.0039062,19.5625 C53.6848942,19.3710928 53.3203146,18.6009182 52.9101562,17.2519531 C52.645832,16.395178 52.5136719,15.4700571 52.5136719,14.4765625 C52.5136719,13.3736924 52.6663396,12.2890678 52.9716797,11.2226562 C53.2770198,10.1562447 53.6848933,9.26758168 54.1953125,8.55664062 C55.3893289,6.92512205 56.9342353,6.109375 58.8300781,6.109375 C59.176434,6.109375 59.454426,6.20051992 59.6640625,6.3828125 C59.6731771,6.39192713 59.7050779,6.40559887 59.7597656,6.42382812 C59.8144534,6.44205738 59.8828121,6.46940086 59.9648438,6.50585938 L60.1835938,6.58789062 Z M58.2421875,7.87304688 C57.8137999,7.87304688 57.3375677,8.01204288 56.8134766,8.29003906 C56.2893854,8.56803524 55.8131532,8.93489355 55.3847656,9.390625 C54.9016903,9.90104422 54.5507823,10.4752572 54.3320312,11.1132812 C53.99479,12.0976612 53.8261719,12.92708 53.8261719,13.6015625 C53.8261719,14.1757841 53.9036451,14.8320276 54.0585938,15.5703125 C54.2135424,16.3085974 54.3958323,16.8964822 54.6054688,17.3339844 C54.8515637,17.8535182 55.1568992,18.2727849 55.5214844,18.5917969 C55.8860695,18.9108089 56.246092,19.0703125 56.6015625,19.0703125 C57.4765669,19.0703125 58.2877567,18.3320386 59.0351562,16.8554688 C59.3815121,16.1809862 59.6025386,15.6842464 59.6982422,15.3652344 C59.7939458,15.0462224 59.8509114,14.631513 59.8691406,14.1210938 C59.9420577,11.6601439 60.133462,10.1744817 60.4433594,9.6640625 C60.5071618,9.51822844 60.5390625,9.40885453 60.5390625,9.3359375 C60.5299479,9.15364492 60.3112001,8.89388189 59.8828125,8.55664062 C59.2994762,8.10090918 58.7526067,7.87304688 58.2421875,7.87304688 Z M77.4785156,9.84179688 C76.2753846,9.84179688 74.9902412,10.1197889 73.6230469,10.6757812 C73.1126277,10.8854177 72.6660175,11.149738 72.2832031,11.46875 C71.9003887,11.787762 71.7089844,12.0566395 71.7089844,12.2753906 C71.7089844,12.5670588 71.8730452,12.8085928 72.2011719,13 C72.5110693,13.1822926 72.8346337,13.3144527 73.171875,13.3964844 C73.5091163,13.478516 74.5390539,13.6790349 76.2617188,13.9980469 C77.410162,14.216798 78.2373022,14.49479 78.7431641,14.8320312 C79.249026,15.1692725 79.5019531,15.6158826 79.5019531,16.171875 C79.5019531,16.6822942 79.2786481,17.2018203 78.8320312,17.7304688 C78.2578096,18.4140659 77.3053452,19.0292941 75.9746094,19.5761719 C74.6894467,20.0957057 73.5410207,20.3554688 72.5292969,20.3554688 C71.9733045,20.3554688 71.5084654,20.2096369 71.1347656,19.9179688 C70.8704414,19.7083323 70.7132164,19.5738935 70.6630859,19.5146484 C70.6129555,19.4554033 70.5651044,19.3483081 70.5195312,19.1933594 C70.4374996,18.9290351 70.3964844,18.6920583 70.3964844,18.4824219 C70.3964844,18.2454415 70.5423162,18.0289723 70.8339844,17.8330078 C71.1256525,17.6370433 71.4446597,17.5390625 71.7910156,17.5390625 C71.9733082,17.5390625 72.1669912,17.6210929 72.3720703,17.7851562 C72.5771495,17.9492196 72.6751303,18.0996087 72.6660156,18.2363281 L72.6386719,18.796875 C72.6386719,18.8971359 72.8027327,18.9654946 73.1308594,19.0019531 C73.2493496,19.0110678 73.3450517,19.0201822 73.4179688,19.0292969 C73.4908858,19.0475261 73.5364582,19.0566406 73.5546875,19.0566406 C73.6093753,19.0566406 73.6914057,19.0429689 73.8007812,19.015625 C73.8736983,18.9973957 74.3248656,18.9016936 75.1542969,18.7285156 C75.7467478,18.6009108 76.1432282,18.43685 76.34375,18.2363281 C76.5078133,18.0904941 76.6809887,17.9720057 76.8632812,17.8808594 C77.091147,17.7623692 77.2893872,17.5755221 77.4580078,17.3203125 C77.6266284,17.0651029 77.7109375,16.8144544 77.7109375,16.5683594 C77.7109375,15.9029915 76.9316484,15.4654958 75.3730469,15.2558594 C73.3860578,14.9915351 72.1419296,14.7636728 71.640625,14.5722656 C70.4921818,14.1529927 69.9179688,13.5742224 69.9179688,12.8359375 C69.9179688,12.4257792 70.1230448,12.0065126 70.5332031,11.578125 C71.3261758,10.7213499 72.4768805,10.0058622 73.9853516,9.43164062 C75.4938226,8.857419 76.9635345,8.5703125 78.3945312,8.5703125 C79.1328162,8.5703125 79.6523422,8.72981611 79.953125,9.04882812 C80.2083346,9.32226699 80.3359375,9.64127422 80.3359375,10.0058594 C80.3359375,10.4524762 80.1764339,10.7760407 79.8574219,10.9765625 C79.6295562,11.1132819 79.4290373,11.1816406 79.2558594,11.1816406 C79.0644522,11.1816406 78.8867196,11.1223964 78.7226562,11.0039062 C78.5585929,10.8854161 78.4765625,10.7578132 78.4765625,10.6210938 C78.4765625,10.5846352 78.4811197,10.5527345 78.4902344,10.5253906 L78.5722656,10.1425781 C78.5175779,9.94205629 78.1529982,9.84179688 77.4785156,9.84179688 Z M82.7695312,3.62109375 C82.9609385,3.62109375 83.1113276,3.70768143 83.2207031,3.88085938 C83.3300787,4.05403732 83.3847656,4.29557137 83.3847656,4.60546875 C83.3847656,5.07031482 83.3619794,5.62629885 83.3164062,6.2734375 L83.2890625,6.65625 C83.1158846,7.92318342 83.0110679,8.63867105 82.9746094,8.80273438 C82.9199216,8.92122455 82.8925781,8.985026 82.8925781,8.99414062 C82.9016928,9.10351617 82.9860018,9.16959624 83.1455078,9.19238281 C83.3050138,9.21516938 83.8632765,9.24023424 84.8203125,9.26757812 C86.2057361,9.33138053 86.9622389,9.39973922 87.0898438,9.47265625 C87.1627608,9.50911477 87.2311195,9.58886657 87.2949219,9.71191406 C87.3587243,9.83496155 87.390625,9.94661408 87.390625,10.046875 C87.390625,10.2747407 87.2766938,10.6256487 87.0488281,11.0996094 C86.9394526,11.3365897 86.7571627,11.4550781 86.5019531,11.4550781 C86.3652337,11.4550781 86.0963562,11.4231774 85.6953125,11.359375 C85.5677077,11.3411457 85.0869182,11.3069664 84.2529297,11.2568359 C83.4189411,11.2067055 82.8834647,11.1816406 82.6464844,11.1816406 C82.4459625,11.1816406 82.3138024,11.3046863 82.25,11.5507812 C82.2408854,11.5690105 82.2180991,11.6373692 82.1816406,11.7558594 C82.0449212,12.2115908 81.9765625,12.585285 81.9765625,12.8769531 C81.9765625,12.8860678 82.0130205,13.74283 82.0859375,15.4472656 C82.1041668,15.8483093 82.1907544,16.333656 82.3457031,16.9033203 C82.5006518,17.4729846 82.6783844,17.9492168 82.8789062,18.3320312 C83.0794281,18.7148457 83.3164049,18.90625 83.5898438,18.90625 C84.0091167,18.90625 84.4511696,18.507491 84.9160156,17.7099609 C85.3808617,16.9124309 85.8229146,15.7890697 86.2421875,14.3398438 C86.3242192,14.039061 86.3834634,13.8385422 86.4199219,13.7382812 C86.4746096,13.5833326 86.5019531,13.4921876 86.5019531,13.4648438 C86.5384116,13.1367171 86.5839841,12.9726562 86.6386719,12.9726562 C86.7480474,12.9726562 86.8027344,13.0638012 86.8027344,13.2460938 L86.7890625,13.9433594 C86.7890625,13.9798179 86.8027342,14.0800773 86.8300781,14.2441406 C86.8938805,14.5813819 86.9257812,14.8593739 86.9257812,15.078125 C86.9257812,15.5156272 86.8027356,16.1126264 86.5566406,16.8691406 C86.3196603,17.5891963 86.1236987,18.1223941 85.96875,18.46875 C85.8138013,18.8151059 85.6360687,19.0976552 85.4355469,19.3164062 C84.8157521,20.0546912 84.4921876,20.4374999 84.4648438,20.4648438 C84.091144,20.7473972 83.758465,20.8886719 83.4667969,20.8886719 C82.6373656,20.8886719 81.9674505,20.1184973 81.4570312,18.578125 C81.0377583,17.3385355 80.828125,15.8346443 80.828125,14.0664062 C80.828125,13.8932283 80.8417967,13.2506566 80.8691406,12.1386719 L80.8691406,11.7011719 C80.8782553,11.5553378 80.8828125,11.4368494 80.8828125,11.3457031 C80.8828125,11.2180983 80.8326828,11.1542969 80.7324219,11.1542969 C80.6595048,11.1542969 80.5729172,11.1634114 80.4726562,11.1816406 C80.4179685,11.1816406 80.2721366,11.1953124 80.0351562,11.2226562 C79.6158833,11.2682294 79.2558609,11.3320308 78.9550781,11.4140625 C78.7636709,11.4596356 78.6041673,11.4824219 78.4765625,11.4824219 C78.1757797,11.4824219 78.0253906,11.281903 78.0253906,10.8808594 C78.0253906,10.6803375 78.0390624,10.5527346 78.0664062,10.4980469 C78.0937501,10.4433591 78.1985668,10.3476569 78.3808594,10.2109375 L78.421875,10.0742188 C78.5039067,9.81900914 78.6861965,9.64583379 78.96875,9.5546875 C79.4335961,9.40885344 79.8300765,9.3359375 80.1582031,9.3359375 C80.1764324,9.3359375 80.2311193,9.34960924 80.3222656,9.37695312 L80.4726562,9.32226562 C80.8919292,9.26757785 81.110677,9.23111988 81.1289062,9.21289062 C81.1927087,8.96679564 81.2337239,8.80729203 81.2519531,8.734375 L81.59375,6.90234375 C82.0130229,5.04295945 82.2522783,4.03125082 82.3115234,3.8671875 C82.3707685,3.70312418 82.5234363,3.62109375 82.7695312,3.62109375 Z M87.1992188,7.72265625 L87.6640625,7.859375 C87.9375014,7.94140666 88.1015622,8.00520811 88.15625,8.05078125 C88.3567718,8.21484457 88.4570312,8.4153634 88.4570312,8.65234375 C88.4570312,8.70703152 88.3932298,9.07161121 88.265625,9.74609375 C88.1653641,10.2656276 88.1289061,10.6302073 88.15625,10.8398438 L88.2382812,11.5234375 L88.5253906,10.6894531 C88.8626319,9.69595857 89.0745438,9.09668071 89.1611328,8.89160156 C89.2477218,8.68652241 89.3730461,8.48372496 89.5371094,8.28320312 C89.7376312,8.01887889 89.9654935,7.88671875 90.2207031,7.88671875 C90.3665372,7.88671875 90.6627582,8.01887889 91.109375,8.28320312 C91.4648455,8.49283959 91.7018223,8.67968668 91.8203125,8.84375 C91.9388027,9.00781332 91.9980469,9.23111838 91.9980469,9.51367188 C91.9980469,9.78711074 91.906902,10.0263662 91.7246094,10.2314453 C91.5423168,10.4365245 91.323569,10.5390625 91.0683594,10.5390625 C90.9680985,10.5390625 90.8450528,10.4798183 90.6992188,10.3613281 C90.4166653,10.1334624 90.2115892,10.0195312 90.0839844,10.0195312 C90.0019527,10.0195312 89.9244795,10.1106762 89.8515625,10.2929688 C89.7786455,10.4752613 89.5598977,11.117833 89.1953125,12.2207031 C88.9401029,12.9589881 88.7145192,13.9114525 88.5185547,15.078125 C88.3225902,16.2447975 88.2246094,17.1972619 88.2246094,17.9355469 C88.2246094,18.0358078 88.2382811,18.2317694 88.265625,18.5234375 L88.3066406,19.0019531 L88.3476562,19.3164062 C88.2929685,19.9088571 88.2519533,20.2324216 88.2246094,20.2871094 C88.1334631,20.5332044 87.9375015,20.65625 87.6367188,20.65625 C87.3997384,20.65625 87.2516279,20.5126967 87.1923828,20.2255859 C87.1331377,19.9384751 87.0989584,19.2024799 87.0898438,18.0175781 C87.0898438,16.8235617 87.076172,16.0351582 87.0488281,15.6523438 C87.0214842,14.8958296 87.0078125,14.403647 87.0078125,14.1757812 C87.0078125,13.911457 87.0260415,13.6015643 87.0625,13.2460938 C87.0716146,13.1276036 87.0761719,13.0227869 87.0761719,12.9316406 C87.0761719,12.7675773 87.0032559,12.6673179 86.8574219,12.6308594 C86.6751293,12.5761716 86.5611981,12.5214846 86.515625,12.4667969 C86.4700519,12.4121091 86.4335939,12.3027352 86.40625,12.1386719 C86.3971354,12.0475256 86.3925781,11.5826865 86.3925781,10.7441406 C86.3925781,8.75715152 86.6614556,7.75000014 87.1992188,7.72265625 Z M102.771484,15.3378906 C102.899089,15.3470053 102.949219,15.5429668 102.921875,15.9257812 C102.91276,16.0351568 102.908203,16.2447901 102.908203,16.5546875 C102.908203,16.7187508 102.917318,16.8782544 102.935547,17.0332031 C102.953776,17.1608079 102.962891,17.2291666 102.962891,17.2382812 C102.944661,17.4752616 102.823894,17.8079406 102.600586,18.2363281 C102.377278,18.6647157 102.115236,19.0611961 101.814453,19.4257812 C101.613931,19.6809909 101.256187,19.9316394 100.741211,20.1777344 C100.226234,20.4238294 99.8092464,20.546875 99.4902344,20.546875 C98.7792933,20.546875 98.2096376,20.2597685 97.78125,19.6855469 C97.4075502,19.1842423 97.1569017,18.4231822 97.0292969,17.4023438 C97.0110676,17.2382804 96.9700524,16.6276095 96.90625,15.5703125 L96.8652344,15.3925781 C96.7194003,15.6569024 96.5371105,16.1262987 96.3183594,16.8007812 C95.8990864,18.1132878 95.4980488,19.042966 95.1152344,19.5898438 C94.73242,20.1367215 94.2903671,20.4101562 93.7890625,20.4101562 C93.5611968,20.4101562 93.3652352,20.3509121 93.2011719,20.2324219 C93.0097647,20.0957024 92.8320321,19.7880883 92.6679688,19.3095703 C92.5039054,18.8310523 92.421875,18.3821636 92.421875,17.9628906 L92.4355469,15.0917969 C92.4173176,14.5449191 92.4082031,13.9934924 92.4082031,13.4375 C92.4082031,10.0742019 92.6770806,8.39257812 93.2148438,8.39257812 C93.3697924,8.39257812 93.5498037,8.50195203 93.7548828,8.72070312 C93.959962,8.93945422 94.0625,9.1354158 94.0625,9.30859375 C94.0625,9.32682301 93.9576833,10.3339744 93.7480469,12.3300781 C93.5292958,14.2714941 93.4199219,15.511065 93.4199219,16.0488281 C93.4199219,16.714196 93.4768875,17.2929663 93.5908203,17.7851562 C93.7047532,18.2773462 93.8391919,18.5234375 93.9941406,18.5234375 C94.1855478,18.5234375 94.5113909,18.0449267 94.9716797,17.0878906 C95.4319684,16.1308546 95.7988268,15.1783902 96.0722656,14.2304688 C96.7194043,11.9426969 97.0703122,10.703126 97.125,10.5117188 C97.1888024,10.283853 97.2389321,9.9648458 97.2753906,9.5546875 C97.3209638,9.16275846 97.4212232,8.82780087 97.5761719,8.54980469 C97.7311206,8.27180851 97.8997387,8.1328125 98.0820312,8.1328125 C98.2369799,8.1328125 98.3782546,8.21256431 98.5058594,8.37207031 C98.6334642,8.53157632 98.6972656,8.70703029 98.6972656,8.8984375 C98.6972656,9.0260423 98.6653649,9.19010316 98.6015625,9.390625 C98.4374992,9.92838811 98.305339,10.7259062 98.2050781,11.7832031 C98.1048172,12.8405001 98.0546875,13.9479109 98.0546875,15.1054688 C98.0546875,17.4752723 98.6289005,18.6601562 99.7773438,18.6601562 C99.9505217,18.6601562 100.075846,18.6419273 100.15332,18.6054688 C100.230795,18.5690102 100.392577,18.4596363 100.638672,18.2773438 L100.857422,18.1269531 C101.185549,17.8808581 101.429361,17.6598317 101.588867,17.4638672 C101.748373,17.2679027 102.028644,16.8281284 102.429688,16.1445312 C102.539063,15.9713533 102.607422,15.8209642 102.634766,15.6933594 C102.689453,15.456379 102.735026,15.3378906 102.771484,15.3378906 Z M103.386719,4.83789062 C103.414063,4.83789062 103.687497,4.91536381 104.207031,5.0703125 C104.307292,5.09765639 104.39388,5.1979158 104.466797,5.37109375 C104.539714,5.5442717 104.576172,5.73111879 104.576172,5.93164062 C104.576172,6.25065264 104.475912,6.52180878 104.275391,6.74511719 C104.074869,6.9684256 103.837892,7.08007812 103.564453,7.08007812 C103.382161,7.08007812 103.186199,6.96158973 102.976562,6.72460938 C102.766926,6.48762902 102.662109,6.26888121 102.662109,6.06835938 C102.662109,5.80403514 102.741861,5.53515762 102.901367,5.26171875 C103.060873,4.98827988 103.222655,4.84700525 103.386719,4.83789062 Z M103.810547,8.41992188 C104.001954,8.41992188 104.172851,8.49967368 104.323242,8.65917969 C104.473634,8.81868569 104.548828,9.00325416 104.548828,9.21289062 C104.548828,9.3313808 104.421225,10.0104105 104.166016,11.25 C104.020182,12.134119 103.897136,14.0891776 103.796875,17.1152344 L103.564453,21.0390625 L103.482422,23.3769531 C103.473307,23.4680994 103.46875,23.5501298 103.46875,23.6230469 C103.46875,23.7141932 103.4847,23.7711587 103.516602,23.7939453 C103.548503,23.8167319 103.651041,23.8509112 103.824219,23.8964844 C103.878907,23.905599 103.90625,23.9694004 103.90625,24.0878906 C103.90625,24.1790369 103.892578,24.2792963 103.865234,24.3886719 C103.801432,24.7259131 103.769531,25.0722638 103.769531,25.4277344 C103.769531,25.7923195 103.78776,26.0520826 103.824219,26.2070312 C103.860677,26.3619799 103.992837,26.7220024 104.220703,27.2871094 C104.257162,27.3873703 104.275391,27.5195304 104.275391,27.6835938 C104.275391,27.9114595 104.202475,28.1347645 104.056641,28.3535156 C103.910807,28.5722667 103.760417,28.6816406 103.605469,28.6816406 C103.386718,28.6816406 103.174806,28.4492211 102.969727,27.984375 C102.764647,27.5195289 102.607422,26.9134152 102.498047,26.1660156 C102.406901,25.5553355 102.361328,24.639329 102.361328,23.4179688 C102.361328,22.4518181 102.411458,21.4811247 102.511719,20.5058594 C102.630209,19.2753845 102.689453,18.4368512 102.689453,17.9902344 L102.662109,16.5273438 C102.662109,16.3450512 102.675781,16.1718758 102.703125,16.0078125 C102.785157,15.5794249 102.826172,15.2877612 102.826172,15.1328125 C102.826172,15.0052077 102.716798,14.9049483 102.498047,14.8320312 C102.142576,14.7135411 101.964844,14.4036483 101.964844,13.9023438 C101.964844,13.7382804 101.992187,13.553712 102.046875,13.3486328 C102.101563,13.1435537 102.283853,12.5032606 102.59375,11.4277344 L102.744141,10.4980469 L102.990234,9.74609375 C103.09961,9.2265599 103.208984,8.87565195 103.318359,8.69335938 C103.427735,8.5110668 103.591796,8.41992188 103.810547,8.41992188 Z M116.183594,15.3378906 C116.311199,15.3470053 116.361328,15.5429668 116.333984,15.9257812 C116.32487,16.0351568 116.320312,16.2447901 116.320312,16.5546875 C116.320312,16.7187508 116.329427,16.8782544 116.347656,17.0332031 C116.365886,17.1608079 116.375,17.2291666 116.375,17.2382812 C116.356771,17.4752616 116.236004,17.8079406 116.012695,18.2363281 C115.789387,18.6647157 115.527345,19.0611961 115.226562,19.4257812 C115.026041,19.6809909 114.668297,19.9316394 114.15332,20.1777344 C113.638344,20.4238294 113.221356,20.546875 112.902344,20.546875 C112.191403,20.546875 111.621747,20.2597685 111.193359,19.6855469 C110.81966,19.1842423 110.569011,18.4231822 110.441406,17.4023438 C110.423177,17.2382804 110.382162,16.6276095 110.318359,15.5703125 L110.277344,15.3925781 C110.13151,15.6569024 109.94922,16.1262987 109.730469,16.8007812 C109.311196,18.1132878 108.910158,19.042966 108.527344,19.5898438 C108.144529,20.1367215 107.702476,20.4101562 107.201172,20.4101562 C106.973306,20.4101562 106.777345,20.3509121 106.613281,20.2324219 C106.421874,20.0957024 106.244141,19.7880883 106.080078,19.3095703 C105.916015,18.8310523 105.833984,18.3821636 105.833984,17.9628906 L105.847656,15.0917969 C105.829427,14.5449191 105.820312,13.9934924 105.820312,13.4375 C105.820312,10.0742019 106.08919,8.39257812 106.626953,8.39257812 C106.781902,8.39257812 106.961913,8.50195203 107.166992,8.72070312 C107.372071,8.93945422 107.474609,9.1354158 107.474609,9.30859375 C107.474609,9.32682301 107.369793,10.3339744 107.160156,12.3300781 C106.941405,14.2714941 106.832031,15.511065 106.832031,16.0488281 C106.832031,16.714196 106.888997,17.2929663 107.00293,17.7851562 C107.116863,18.2773462 107.251301,18.5234375 107.40625,18.5234375 C107.597657,18.5234375 107.9235,18.0449267 108.383789,17.0878906 C108.844078,16.1308546 109.210936,15.1783902 109.484375,14.2304688 C110.131514,11.9426969 110.482422,10.703126 110.537109,10.5117188 C110.600912,10.283853 110.651041,9.9648458 110.6875,9.5546875 C110.733073,9.16275846 110.833333,8.82780087 110.988281,8.54980469 C111.14323,8.27180851 111.311848,8.1328125 111.494141,8.1328125 C111.649089,8.1328125 111.790364,8.21256431 111.917969,8.37207031 C112.045574,8.53157632 112.109375,8.70703029 112.109375,8.8984375 C112.109375,9.0260423 112.077474,9.19010316 112.013672,9.390625 C111.849609,9.92838811 111.717448,10.7259062 111.617188,11.7832031 C111.516927,12.8405001 111.466797,13.9479109 111.466797,15.1054688 C111.466797,17.4752723 112.04101,18.6601562 113.189453,18.6601562 C113.362631,18.6601562 113.487955,18.6419273 113.56543,18.6054688 C113.642904,18.5690102 113.804686,18.4596363 114.050781,18.2773438 L114.269531,18.1269531 C114.597658,17.8808581 114.841471,17.6598317 115.000977,17.4638672 C115.160483,17.2679027 115.440753,16.8281284 115.841797,16.1445312 C115.951172,15.9713533 116.019531,15.8209642 116.046875,15.6933594 C116.101563,15.456379 116.147135,15.3378906 116.183594,15.3378906 Z" id="Sve-za-struju"></path>
                    </g>
                </g>
            </g>
        </g>
    </g>
</svg>