<?xml version="1.0" encoding="UTF-8"?>
<svg width="24px" height="22px" viewBox="0 0 24 22" version="1.1" xmlns="http://www.w3.org/2000/svg" xmlns:xlink="http://www.w3.org/1999/xlink">
    <!-- Generator: Sketch 48.2 (47327) - http://www.bohemiancoding.com/sketch -->
    <title>shopping-cart (1)</title>
    <desc>Created with Sketch.</desc>
    <defs></defs>
    <g id="Pocetna" stroke="none" stroke-width="1" fill="none" fill-rule="evenodd" transform="translate(-1640.000000, -65.000000)">
        <g id="header" transform="translate(0.000000, -11.000000)" fill="#FFFFFF" fill-rule="nonzero">
            <g id="Header" transform="translate(536.000000, 60.000000)">
                <g id="Cart" transform="translate(1064.000000, 0.000000)">
                    <g id="Content">
                        <g transform="translate(40.000000, 11.000000)">
                            <g id="shopping-cart-(1)" transform="translate(0.000000, 5.000000)">
                                <circle id="Oval" cx="8.09195402" cy="19.1264368" r="2.20689655"></circle>
                                <path d="M23.4421609,3.08962802 C23.344092,2.99309129 23.245977,2.8965093 23.0498391,2.8965093 L4.4137931,2.8965093 L3.92335632,0.386192195 C3.82528736,0.193073472 3.62910345,7.95329469e-09 3.43291954,7.95329469e-09 L0.490390805,7.95329469e-09 C0.196183908,-4.52507116e-05 0,0.193073472 0,0.482728927 C0,0.772384383 0.196183908,0.965503106 0.490436782,0.965503106 L3.04064368,0.965503106 L5.39466667,12.74484 C5.78698851,14.289654 7.16018391,15.4482759 8.82763218,15.4482759 L20.1073103,15.4482759 C20.4015632,15.4482759 20.5977471,15.2551571 20.5977471,14.9655017 C20.5977471,14.6758462 20.4015632,14.4827275 20.1073103,14.4827275 L8.82758621,14.4827275 C8.04289655,14.4827275 7.25825287,14.0965353 6.86588506,13.4206424 L21.1862069,11.4896362 C21.3823908,11.4896362 21.5785287,11.2965175 21.5785287,11.103444 L23.5402299,3.37928348 C23.5402299,3.37928348 23.5402299,3.18616476 23.4421609,3.08962802 Z" id="Shape"></path>
                                <circle id="Oval" cx="17.6551724" cy="19.1264368" r="2.20689655"></circle>
                            </g>
                        </g>
                    </g>
                </g>
            </g>
        </g>
    </g>
</svg>