<?xml version="1.0" encoding="UTF-8"?>
<svg width="11px" height="11px" viewBox="0 0 11 11" version="1.1" xmlns="http://www.w3.org/2000/svg" xmlns:xlink="http://www.w3.org/1999/xlink">
    <!-- Generator: Sketch 48.2 (47327) - http://www.bohemiancoding.com/sketch -->
    <title>x</title>
    <desc>Created with Sketch.</desc>
    <defs></defs>
    <g id="CMS-" stroke="none" stroke-width="1" fill="none" fill-rule="evenodd" transform="translate(-393.000000, -134.000000)">
        <g id="Header" transform="translate(0.000000, -11.000000)" fill="#FFFFFF" fill-rule="nonzero">
            <g id="Group-3" transform="translate(393.000000, 145.000000)">
                <path d="M6.80732209,5.50000998 L10.7292197,1.57811238 C11.0902351,1.217097 11.0902351,0.631776922 10.7292197,0.270813185 C10.3682043,-0.0902021985 9.78293587,-0.0902021985 9.42192048,0.270813185 L5.49997124,4.19276243 L1.578022,0.270761538 C1.21700662,-0.090253846 0.631738186,-0.090253846 0.270722802,0.270761538 C-0.0902409341,0.631776922 -0.0902409341,1.217097 0.270722802,1.57806074 L4.19267204,5.49995833 L0.270722802,9.42190757 C-0.0902409341,9.78292296 -0.0902409341,10.368243 0.270722802,10.7292068 C0.631738186,11.0902222 1.21700662,11.0902222 1.578022,10.7292068 L5.49997124,6.80725753 L9.42192048,10.7292068 C9.78288422,11.0902222 10.3682043,11.0902222 10.7292197,10.7292068 C11.0902351,10.3681914 11.0902351,9.78292296 10.7292197,9.42190757 L6.80732209,5.50000998 Z" id="Shape"></path>
            </g>
        </g>
    </g>
</svg>